<svg viewBox="0 0 96 34" xmlns="http://www.w3.org/2000/svg" fill-rule="evenodd" clip-rule="evenodd"><g><path d="M47.27 2.548l-.265.266h3.792v-.266h-3.527zM43.249 6.57l-.265.265h8.593v-.265h-8.328zM39.227 10.592l-.265.265h13.17v-.265h-12.905zM35.692 14.127l-.265.265h17.377v-.265h-17.112zM33.659 17.84l.265.265h19.708v-.265h-19.973zM37.371 21.552l.265.265h15.38v-.265h-15.645zM41.393 25.574l.264.264h11.147v-.264h-11.411zM45.635 29.816l.265.265h5.677v-.265h-5.942z" fill="#231f20"/><path d="M50.554 5.332l.414 3.006h7.189l-3.005-3.006h-4.598zM49.819 0l.637 4.626h3.989l-4.626-4.626zM52.161 17l-.34 2.475h12.523l2.475-2.475-.53-.53h-14.201l.073.53zM49.819 34l6.393-6.393h-5.512l-.881 6.393zM50.797 26.899h6.123l3.005-3.005h-8.714l-.414 3.005zM51.991 15.762h13.591l-3.006-3.005h-10.999l.414 3.005zM51.309 23.187h9.323l3.005-3.005h-11.914l-.414 3.005zM51.479 12.05h10.39l-3.005-3.005h-7.799l.414 3.005z" fill="#00a79d"/><path d="M3.525 17.89h3.451l-1.699-3.205-1.752 3.205zm-3.525 3.145l4.457-7.878h1.766l4.517 7.878h-2.057l-.947-1.722h-4.993l-.917 1.722h-1.826zM15.624 13.157h1.833v7.878h-1.833zM29.758 14.521h-4.122v2.191h4.122c.317 0 .535-.046.652-.138.116-.091.175-.254.175-.488v-.946c0-.229-.059-.389-.175-.481-.117-.092-.335-.138-.652-.138m-5.925 6.514v-7.878h6.737c.626 0 1.08.121 1.36.362.281.241.422.629.422 1.166v1.848c0 .532-.141.92-.422 1.163-.28.244-.734.365-1.36.365h-1.029l3.638 2.974h-2.632l-3.174-2.974h-1.737v2.974h-1.803zM50.172 21.035c-.766 0-1.282-.13-1.551-.391-.268-.261-.402-.752-.402-1.472v-1.633l1.848-.35v2.363h3.6v-6.395h1.833v6.015c0 .72-.135 1.211-.406 1.472-.271.261-.786.391-1.546.391h-3.376zM61.555 21.035v-7.878h8.064v1.342h-6.231v1.759h3.638v1.341h-3.638v1.953h6.306v1.483h-8.139zM79.095 14.566v6.469h-1.834v-6.469h-3.614v-1.409h9.077v1.409h-3.629zM94.145 14.536h-5.157v1.692h4.911c.77 0 1.291.132 1.561.395.271.263.407.753.407 1.468v1.081c0 .715-.136 1.205-.407 1.468-.27.263-.791.395-1.561.395h-4.867c-.769 0-1.29-.132-1.561-.395-.271-.263-.406-.753-.406-1.468v-.216l1.617-.336v.932h5.568v-1.796h-4.912c-.765 0-1.282-.132-1.55-.395s-.402-.753-.402-1.469v-.872c0-.715.134-1.204.402-1.468.268-.263.785-.395 1.55-.395h4.472c.74 0 1.251.127 1.531.38.281.254.421.703.421 1.349v.164l-1.617.38v-.894z" fill="#231f20"/></g></svg>